# xmcd CD database file
#
# Track frame offsets:
#	150
#	15827
#	29995
#	43651
#	62505
#	77633
#	93437
#	109405
#	124019
#	139172
#	152378
#	164514
#	182230
#	197884
#	212701
#	224328
#	240033
#	255108
#	270479
#	284303
#	299524
#	316512
#
# Disc length: 4375 seconds
#
# Revision: 0
# Processed by: cddbd v1.5.1PL0 Copyright (c) Steve Scherf et al.
# Submitted via: CDex 1.51
#
DISCID=32111516
DTITLE=San Francisco Starlight Orchestra - Cheerful Little Earful
DYEAR=1996
DGENRE=Jazz
TTITLE0=Music Has Charms
TTITLE1=Because My Baby Don't Mean "Maybe" Now
TTITLE2=Clementine [from New Orleans]
TTITLE3=Pardon Me, Pretty Baby
TTITLE4=Learn To Croon
TTITLE5=Cheerful Little Earful
TTITLE6=There Ain't No Sweet Man That's Worth The Salt Of My Tears
TTITLE7=Jubilation Rag
TTITLE8=Sugar
TTITLE9=Sweet Little You
TTITLE10=The Cannon Ball
TTITLE11=Persian Rug
TTITLE12=My Ideal
TTITLE13=Proud [Of A Baby Like You]
TTITLE14=From Sunrise To Sunset
TTITLE15=Reaching From Someone
TTITLE16=You're The Cream In My Coffee
TTITLE17=I'm Young And Healthy
TTITLE18=Bessie Couldn't Help It
TTITLE19=Baltimore
TTITLE20=Where The Shy Little Violets Grow
TTITLE21=Do Something
EXTD=YEAR: 1996
EXTT0=
EXTT1=
EXTT2=
EXTT3=
EXTT4=
EXTT5=
EXTT6=
EXTT7=
EXTT8=
EXTT9=
EXTT10=
EXTT11=
EXTT12=
EXTT13=
EXTT14=
EXTT15=
EXTT16=
EXTT17=
EXTT18=
EXTT19=
EXTT20=
EXTT21=
PLAYORDER=
